<svg xmlns="http://www.w3.org/2000/svg" viewBox="0 0 64 64" width="64" height="64">
  <rect width="64" height="64" rx="14" fill="#0a0a12"/>
  <g stroke="#e11d2a" stroke-width="2.4" stroke-linecap="round" fill="none">
    <!-- web -->
    <path d="M32 8 V56 M8 32 H56 M15 15 L49 49 M49 15 L15 49"/>
    <path d="M32 18 C24 18 18 24 18 32 C18 40 24 46 32 46 C40 46 46 40 46 32 C46 24 40 18 32 18 Z" opacity="0.5"/>
    <path d="M32 26 C28 26 26 28 26 32 C26 36 28 38 32 38 C36 38 38 36 38 32 C38 28 36 26 32 26 Z" opacity="0.7"/>
  </g>
  <!-- spider body -->
  <ellipse cx="32" cy="32" rx="4" ry="5.5" fill="#e11d2a"/>
  <g stroke="#e11d2a" stroke-width="2" stroke-linecap="round">
    <path d="M28 30 L20 26 M28 32 L19 32 M28 34 L20 38"/>
    <path d="M36 30 L44 26 M36 32 L45 32 M36 34 L44 38"/>
  </g>
</svg>
